<svg width="4170" height="1270" viewBox="0 0 4170 1270" fill="none" xmlns="http://www.w3.org/2000/svg">
<path d="M1744.48 515.727C1741.92 494.136 1731.55 477.375 1713.37 465.443C1695.19 453.511 1672.89 447.545 1646.47 447.545C1627.15 447.545 1610.24 450.67 1595.76 456.92C1581.41 463.17 1570.19 471.764 1562.09 482.702C1554.14 493.639 1550.16 506.068 1550.16 519.989C1550.16 531.636 1552.93 541.651 1558.47 550.031C1564.15 558.27 1571.39 565.159 1580.2 570.699C1589.01 576.097 1598.24 580.571 1607.9 584.122C1617.56 587.531 1626.44 590.301 1634.53 592.432L1678.85 604.364C1690.22 607.347 1702.86 611.466 1716.78 616.722C1730.84 621.977 1744.26 629.151 1757.05 638.241C1769.97 647.19 1780.63 658.696 1789.01 672.759C1797.39 686.821 1801.58 704.08 1801.58 724.534C1801.58 748.114 1795.4 769.42 1783.04 788.455C1770.83 807.489 1752.93 822.616 1729.35 833.838C1705.91 845.06 1677.43 850.67 1643.91 850.67C1612.66 850.67 1585.6 845.628 1562.73 835.543C1540 825.457 1522.11 811.395 1509.04 793.355C1496.11 775.315 1488.8 754.364 1487.09 730.5H1541.64C1543.06 746.977 1548.6 760.614 1558.26 771.409C1568.06 782.062 1580.41 790.017 1595.33 795.273C1610.39 800.386 1626.58 802.943 1643.91 802.943C1664.08 802.943 1682.19 799.676 1698.24 793.142C1714.29 786.466 1727.01 777.233 1736.38 765.443C1745.76 753.511 1750.44 739.591 1750.44 723.682C1750.44 709.193 1746.39 697.403 1738.3 688.312C1730.2 679.222 1719.55 671.835 1706.34 666.153C1693.13 660.472 1678.85 655.5 1663.51 651.239L1609.82 635.898C1575.73 626.097 1548.74 612.105 1528.85 593.923C1508.97 575.741 1499.02 551.949 1499.02 522.545C1499.02 498.114 1505.63 476.807 1518.84 458.625C1532.19 440.301 1550.09 426.097 1572.53 416.011C1595.12 405.784 1620.33 400.67 1648.17 400.67C1676.3 400.67 1701.3 405.713 1723.17 415.798C1745.05 425.741 1762.38 439.378 1775.16 456.707C1788.09 474.037 1794.9 493.71 1795.61 515.727H1744.48ZM1955.79 843L1856.07 515.727H1908.91L1979.65 766.295H1983.06L2052.95 515.727H2106.64L2175.67 765.443H2179.08L2249.82 515.727H2302.66L2202.95 843H2153.51L2081.92 591.58H2076.81L2005.22 843H1955.79ZM2369.14 843V515.727H2419.42V843H2369.14ZM2394.71 461.182C2384.91 461.182 2376.46 457.844 2369.35 451.168C2362.39 444.491 2358.91 436.466 2358.91 427.091C2358.91 417.716 2362.39 409.69 2369.35 403.014C2376.46 396.338 2384.91 393 2394.71 393C2404.51 393 2412.89 396.338 2419.85 403.014C2426.95 409.69 2430.5 417.716 2430.5 427.091C2430.5 436.466 2426.95 444.491 2419.85 451.168C2412.89 457.844 2404.51 461.182 2394.71 461.182ZM2743.34 589.023L2698.17 601.807C2695.33 594.278 2691.14 586.963 2685.6 579.861C2680.2 572.616 2672.82 566.651 2663.44 561.963C2654.07 557.276 2642.06 554.932 2627.43 554.932C2607.4 554.932 2590.71 559.548 2577.36 568.781C2564.15 577.872 2557.55 589.449 2557.55 603.511C2557.55 616.011 2562.09 625.884 2571.18 633.128C2580.27 640.372 2594.48 646.409 2613.8 651.239L2662.38 663.17C2691.64 670.273 2713.44 681.139 2727.79 695.77C2742.13 710.259 2749.31 728.937 2749.31 751.807C2749.31 770.557 2743.91 787.318 2733.11 802.091C2722.46 816.864 2707.55 828.511 2688.37 837.034C2669.19 845.557 2646.89 849.818 2621.47 849.818C2588.09 849.818 2560.46 842.574 2538.58 828.085C2516.71 813.597 2502.86 792.432 2497.03 764.591L2544.76 752.659C2549.31 770.273 2557.9 783.483 2570.54 792.29C2583.33 801.097 2600.02 805.5 2620.61 805.5C2644.05 805.5 2662.66 800.528 2676.44 790.585C2690.36 780.5 2697.32 768.426 2697.32 754.364C2697.32 743 2693.34 733.483 2685.39 725.812C2677.43 718 2665.22 712.176 2648.74 708.341L2594.19 695.557C2564.22 688.455 2542.2 677.446 2528.14 662.531C2514.22 647.474 2507.26 628.653 2507.26 606.068C2507.26 587.602 2512.45 571.267 2522.82 557.062C2533.33 542.858 2547.6 531.707 2565.64 523.611C2583.82 515.514 2604.42 511.466 2627.43 511.466C2659.82 511.466 2685.24 518.568 2703.71 532.773C2722.32 546.977 2735.53 565.727 2743.34 589.023ZM2875.28 646.125V843H2825V406.636H2875.28V566.864H2879.54C2887.22 549.96 2898.72 536.537 2914.06 526.594C2929.54 516.509 2950.14 511.466 2975.85 511.466C2998.15 511.466 3017.68 515.94 3034.45 524.889C3051.21 533.696 3064.2 547.261 3073.44 565.585C3082.81 583.767 3087.5 606.92 3087.5 635.045V843H3037.22V638.455C3037.22 612.46 3030.47 592.361 3016.97 578.156C3003.62 563.81 2985.08 556.636 2961.36 556.636C2944.89 556.636 2930.11 560.116 2917.04 567.077C2904.12 574.037 2893.89 584.193 2886.36 597.545C2878.98 610.898 2875.28 627.091 2875.28 646.125ZM3006.32 1027.57C3017.65 1027.57 3028 1030.5 3037.38 1036.36C3046.75 1042.22 3056.71 1048.47 3067.26 1055.11C3077.41 1062.14 3088.55 1068.59 3100.66 1074.45C3112.77 1080.3 3126.83 1083.23 3142.84 1083.23C3158.86 1083.23 3174.48 1081.09 3189.72 1076.79C3204.95 1072.88 3218.62 1066.63 3230.73 1058.04C3242.84 1049.84 3252.61 1038.9 3260.03 1025.23C3267.45 1011.95 3271.16 996.125 3271.16 977.766C3271.16 947.297 3268.62 915.656 3263.55 882.844C3258.86 850.031 3252.61 817.414 3244.8 784.992C3237.38 752.18 3229.17 720.344 3220.19 689.484C3211.59 658.625 3203.59 630.109 3196.16 603.938C3196.16 603.547 3195.97 602.57 3195.58 601.008C3195.19 599.445 3194.99 598.469 3194.99 598.078C3194.99 590.266 3197.73 584.992 3203.2 582.258C3208.66 579.133 3214.52 577.57 3220.77 577.57C3222.34 577.57 3224.68 577.766 3227.8 578.156C3230.93 578.547 3232.88 578.742 3233.66 578.742C3245.77 609.211 3257.1 640.461 3267.65 672.492C3278.59 704.133 3288.16 736.359 3296.36 769.172C3304.56 801.984 3311.01 834.797 3315.7 867.609C3320.38 900.812 3322.73 933.625 3322.73 966.047C3322.73 991.438 3318.23 1014.48 3309.25 1035.19C3300.66 1055.89 3288.55 1073.47 3272.92 1087.92C3257.3 1102.38 3238.55 1113.51 3216.67 1121.32C3195.19 1129.13 3171.75 1133.04 3146.36 1133.04C3129.56 1133.04 3112.96 1131.09 3096.55 1127.18C3079.76 1123.66 3064.72 1117.8 3051.44 1109.6C3037.77 1101.4 3026.83 1090.46 3018.62 1076.79C3010.42 1063.51 3006.32 1047.1 3006.32 1027.57ZM3144.02 434.602C3144.02 433.43 3144.02 431.086 3144.02 427.57C3144.02 424.055 3144.41 420.539 3145.19 417.023C3145.97 413.117 3147.34 409.797 3149.29 407.062C3151.24 404.328 3154.17 402.961 3158.08 402.961C3164.72 402.961 3169.8 403.938 3173.31 405.891C3176.83 407.453 3179.37 409.602 3180.93 412.336C3182.49 414.68 3183.47 417.805 3183.86 421.711C3184.25 425.227 3184.45 429.328 3184.45 434.016C3184.45 437.141 3184.25 440.656 3183.86 444.562C3183.47 448.469 3182.69 452.18 3181.52 455.695C3180.34 459.211 3178.39 462.141 3175.66 464.484C3172.92 466.438 3169.21 467.414 3164.52 467.414C3159.84 467.414 3156.12 466.438 3153.39 464.484C3150.66 462.141 3148.51 459.406 3146.95 456.281C3145.77 453.156 3144.99 449.641 3144.6 445.734C3144.21 441.828 3144.02 438.117 3144.02 434.602ZM3452.17 850.67C3431.43 850.67 3412.61 846.764 3395.7 838.952C3378.8 830.997 3365.38 819.562 3355.43 804.648C3345.49 789.591 3340.52 771.409 3340.52 750.102C3340.52 731.352 3344.21 716.153 3351.6 704.506C3358.98 692.716 3368.86 683.483 3381.21 676.807C3393.57 670.131 3407.21 665.159 3422.12 661.892C3437.18 658.483 3452.31 655.784 3467.51 653.795C3487.39 651.239 3503.51 649.321 3515.87 648.043C3528.37 646.622 3537.46 644.278 3543.15 641.011C3548.97 637.744 3551.88 632.062 3551.88 623.966V622.261C3551.88 601.239 3546.13 584.903 3534.62 573.256C3523.26 561.608 3506 555.784 3482.85 555.784C3458.84 555.784 3440.02 561.04 3426.38 571.551C3412.75 582.062 3403.16 593.284 3397.62 605.216L3349.89 588.17C3358.42 568.284 3369.78 552.801 3383.98 541.722C3398.33 530.5 3413.96 522.687 3430.86 518.284C3447.9 513.739 3464.67 511.466 3481.14 511.466C3491.65 511.466 3503.73 512.744 3517.36 515.301C3531.14 517.716 3544.42 522.759 3557.21 530.429C3570.13 538.099 3580.86 549.676 3589.38 565.159C3597.9 580.642 3602.17 601.381 3602.17 627.375V843H3551.88V798.682H3549.32C3545.92 805.784 3540.23 813.384 3532.28 821.48C3524.32 829.577 3513.74 836.466 3500.53 842.148C3487.32 847.83 3471.2 850.67 3452.17 850.67ZM3459.84 805.5C3479.72 805.5 3496.48 801.594 3510.12 793.781C3523.9 785.969 3534.27 775.884 3541.23 763.526C3548.33 751.168 3551.88 738.17 3551.88 724.534V678.511C3549.75 681.068 3545.06 683.412 3537.82 685.543C3530.72 687.531 3522.48 689.307 3513.1 690.869C3503.87 692.29 3494.85 693.568 3486.04 694.705C3477.38 695.699 3470.35 696.551 3464.95 697.261C3451.88 698.966 3439.67 701.736 3428.3 705.571C3417.08 709.264 3407.99 714.875 3401.03 722.403C3394.21 729.79 3390.8 739.875 3390.8 752.659C3390.8 770.131 3397.26 783.341 3410.19 792.29C3423.26 801.097 3439.81 805.5 3459.84 805.5ZM3693.94 843V515.727H3742.52V566.864H3746.79C3753.6 549.392 3764.61 535.827 3779.81 526.168C3795.01 516.366 3813.26 511.466 3834.57 511.466C3856.16 511.466 3874.13 516.366 3888.48 526.168C3902.96 535.827 3914.26 549.392 3922.35 566.864H3925.76C3934.14 549.96 3946.71 536.537 3963.48 526.594C3980.24 516.509 4000.34 511.466 4023.77 511.466C4053.04 511.466 4076.97 520.628 4095.58 538.952C4114.19 557.134 4123.49 585.472 4123.49 623.966V843H4073.21V623.966C4073.21 599.818 4066.6 582.56 4053.39 572.19C4040.18 561.821 4024.63 556.636 4006.73 556.636C3983.72 556.636 3965.89 563.597 3953.25 577.517C3940.61 591.295 3934.29 608.767 3934.29 629.932V843H3883.15V618.852C3883.15 600.244 3877.11 585.259 3865.04 573.895C3852.96 562.389 3837.41 556.636 3818.38 556.636C3805.31 556.636 3793.09 560.116 3781.73 567.077C3770.51 574.037 3761.42 583.696 3754.46 596.054C3747.64 608.27 3744.23 622.403 3744.23 638.455V843H3693.94Z" fill="black"/>
<path d="M600.118 670.996V990.95L280.574 829.229L37.9688 706.347V386.514L352.985 545.95L600.118 670.996Z" fill="#DDDAFD" stroke="#231F20" stroke-width="40" stroke-linecap="round" stroke-linejoin="round"/>
<path d="M1164.03 706.342L916.483 831.269L600.094 990.945V670.993L845.58 546.788L1164.03 706.342Z" stroke="#231F20" stroke-width="3" stroke-linecap="round" stroke-linejoin="round"/>
<path d="M1164 953.433L598.286 1237.91L36 953.433L280.526 829.227L591.977 670.994L600.07 674.961L916.457 831.272L1164 953.433Z" stroke="#231F20" stroke-width="3" stroke-linecap="round" stroke-linejoin="round"/>
<path d="M600.07 990.948L598.286 1237.92L36 953.435L280.526 829.229L600.07 990.948Z" fill="#7384FF" stroke="#231F20" stroke-width="40" stroke-linecap="round" stroke-linejoin="round"/>
<path d="M1163.98 706.345V953.433L598.126 1238.04L600.046 990.945L1163.98 706.345Z" fill="#7384FF" stroke="#231F20" stroke-width="40" stroke-linecap="round" stroke-linejoin="round"/>
<path d="M1164.05 706.34L916.505 831.267L600.118 990.943L280.574 829.223L37.9688 706.34L352.985 545.943V545.824L600.118 675.5L844.781 546.305L845.604 546.786L1164.05 706.34Z" fill="#DDDAFD" stroke="#231F20" stroke-width="40" stroke-linecap="round" stroke-linejoin="round"/>
<g style="mix-blend-mode:multiply">
<g style="mix-blend-mode:overlay">
<path d="M1158.56 386.512L600.118 670.993L37.9688 386.512L596.414 101.909L1158.56 386.512Z" fill="#7384FF"/>
</g>
<path d="M1158.56 386.512L600.118 670.993L37.9688 386.512L596.414 101.909L1158.56 386.512Z" stroke="#231F20" stroke-width="40" stroke-linecap="round" stroke-linejoin="round"/>
</g>
</svg>
